<?xml version="1.0" encoding="UTF-8" standalone="no"?>
<!-- Created with Inkscape (http://www.inkscape.org/) -->

<svg
   width="450"
   height="130"
   viewBox="0 0 119.06268 34.39583"
   version="1.1"
   id="svg1"
   inkscape:version="1.4.4 (dcaf3e7d9e, 2026-05-05)"
   xml:space="preserve"
   sodipodi:docname="cynosure.svg"
   xmlns:inkscape="http://www.inkscape.org/namespaces/inkscape"
   xmlns:sodipodi="http://sodipodi.sourceforge.net/DTD/sodipodi-0.dtd"
   xmlns="http://www.w3.org/2000/svg"
   xmlns:svg="http://www.w3.org/2000/svg"><sodipodi:namedview
     id="namedview1"
     pagecolor="#505050"
     bordercolor="#eeeeee"
     borderopacity="1"
     inkscape:showpageshadow="0"
     inkscape:pageopacity="0"
     inkscape:pagecheckerboard="0"
     inkscape:deskcolor="#505050"
     inkscape:document-units="px"
     inkscape:zoom="1.708381"
     inkscape:cx="269.84613"
     inkscape:cy="79.31486"
     inkscape:window-width="2536"
     inkscape:window-height="1376"
     inkscape:window-x="0"
     inkscape:window-y="0"
     inkscape:window-maximized="1"
     inkscape:current-layer="layer1"
     showgrid="false" /><defs
     id="defs1"><inkscape:path-effect
       effect="mirror_symmetry"
       start_point="45.068245,85.027994"
       end_point="91.065735,85.027994"
       center_point="68.06699,85.027994"
       id="path-effect12"
       is_visible="true"
       lpeversion="1.2"
       lpesatellites=""
       mode="free"
       discard_orig_path="false"
       fuse_paths="false"
       oposite_fuse="false"
       split_items="false"
       split_open="false"
       link_styles="false" /><inkscape:path-effect
       effect="mirror_symmetry"
       start_point="45.068245,79.956753"
       end_point="91.065735,79.956753"
       center_point="68.06699,79.956753"
       id="path-effect10"
       is_visible="true"
       lpeversion="1.2"
       lpesatellites=""
       mode="free"
       discard_orig_path="false"
       fuse_paths="false"
       oposite_fuse="false"
       split_items="false"
       split_open="false"
       link_styles="false" /><inkscape:path-effect
       effect="mirror_symmetry"
       start_point="45.068245,79.956753"
       end_point="91.065735,79.956753"
       center_point="68.06699,79.956753"
       id="path-effect8"
       is_visible="true"
       lpeversion="1.2"
       lpesatellites=""
       mode="free"
       discard_orig_path="false"
       fuse_paths="false"
       oposite_fuse="false"
       split_items="false"
       split_open="false"
       link_styles="false" /><inkscape:path-effect
       effect="mirror_symmetry"
       start_point="45.068245,77.304104"
       end_point="91.065735,77.304104"
       center_point="68.06699,77.304104"
       id="path-effect6"
       is_visible="true"
       lpeversion="1.2"
       lpesatellites=""
       mode="free"
       discard_orig_path="false"
       fuse_paths="false"
       oposite_fuse="false"
       split_items="false"
       split_open="false"
       link_styles="false" /><inkscape:path-effect
       effect="mirror_symmetry"
       start_point="45.068245,74.339379"
       end_point="91.065735,74.339379"
       center_point="68.06699,74.339379"
       id="path-effect4"
       is_visible="true"
       lpeversion="1.2"
       lpesatellites=""
       mode="free"
       discard_orig_path="false"
       fuse_paths="false"
       oposite_fuse="false"
       split_items="false"
       split_open="false"
       link_styles="false" /><inkscape:path-effect
       effect="mirror_symmetry"
       start_point="45.068245,67.757247"
       end_point="91.065735,67.757247"
       center_point="68.06699,67.757247"
       id="path-effect2"
       is_visible="true"
       lpeversion="1.2"
       lpesatellites=""
       mode="free"
       discard_orig_path="false"
       fuse_paths="false"
       oposite_fuse="false"
       split_items="false"
       split_open="false"
       link_styles="false" /><inkscape:path-effect
       effect="mirror_symmetry"
       start_point="45.940386,67.733322"
       end_point="89.526258,67.733322"
       center_point="67.733322,67.733322"
       id="path-effect1"
       is_visible="true"
       lpeversion="1.2"
       lpesatellites=""
       mode="free"
       discard_orig_path="false"
       fuse_paths="false"
       oposite_fuse="false"
       split_items="false"
       split_open="false"
       link_styles="false" /></defs><g
     inkscape:label="Layer 1"
     inkscape:groupmode="layer"
     id="layer1"
     transform="translate(-6.4297811,-50.758882)"><path
       id="path1"
       style="fill:#ff6159;fill-opacity:1;stroke-width:0.177725"
       d="m 27.923876,53.391623 a 14.565143,14.565143 0 0 0 -4.162465,0.607515 h 8.32493 a 14.565143,14.565143 0 0 0 -4.162465,-0.607515 z m -6.284107,1.425365 a 14.565143,14.565143 0 0 0 -1.264073,0.683152 h 15.096361 a 14.565143,14.565143 0 0 0 -1.264074,-0.683152 z m -2.472542,1.501001 a 14.565143,14.565143 0 0 0 -1.293776,1.096913 h 20.100851 a 14.565143,14.565143 0 0 0 -1.293776,-1.096913 z m -2.224563,2.070181 a 14.565143,14.565143 0 0 0 -0.6386,0.786419 H 39.543688 A 14.565143,14.565143 0 0 0 38.90509,58.38817 Z m 10.981212,1.132831 a 8.4359566,8.4359566 0 0 0 -3.963873,0.989156 h -8.553915 a 14.565143,14.565143 0 0 0 -0.326725,0.579194 h 7.945017 a 8.4359566,8.4359566 0 0 0 -1.478207,1.345583 h -7.100228 a 14.565143,14.565143 0 0 0 -0.867583,3.002004 h 6.294812 a 8.4359566,8.4359566 0 0 0 -0.303239,1.345583 h -6.163916 a 14.565143,14.565143 0 0 0 -0.04732,1.174276 14.565143,14.565143 0 0 0 0.05008,1.206397 h 6.165988 a 8.4359566,8.4359566 0 0 0 0.308421,1.345582 h -6.299304 a 14.565143,14.565143 0 0 0 0.918354,3.105271 h 7.163778 a 8.4359566,8.4359566 0 0 0 1.554189,1.345582 H 15.15258 a 14.565143,14.565143 0 0 0 0.335359,0.579196 h 8.737654 a 8.4359566,8.4359566 0 0 0 3.69828,0.853767 8.4359566,8.4359566 0 0 0 3.698281,-0.853767 h 8.737654 a 14.565143,14.565143 0 0 0 0.335359,-0.579196 h -8.067626 a 8.4359566,8.4359566 0 0 0 1.55419,-1.345582 h 7.163778 a 14.565143,14.565143 0 0 0 0.918353,-3.105271 H 35.96456 a 8.4359566,8.4359566 0 0 0 0.308419,-1.345582 h 6.165989 a 14.565143,14.565143 0 0 0 0.05008,-1.206397 14.565143,14.565143 0 0 0 -0.04732,-1.174276 H 36.277809 A 8.4359566,8.4359566 0 0 0 35.97457,65.436938 h 6.294813 a 14.565143,14.565143 0 0 0 -0.867581,-3.002004 h -7.100228 a 8.4359566,8.4359566 0 0 0 -1.478207,-1.345583 h 7.945017 A 14.565143,14.565143 0 0 0 40.441659,60.510157 H 31.887744 A 8.4359566,8.4359566 0 0 0 27.92387,59.521001 Z m 0,3.104926 a 5.3306966,5.3306966 0 0 1 5.2017,4.166264 h 1.811149 v 2.329212 h -1.811149 a 5.3306966,5.3306966 0 0 1 -5.2017,4.165919 5.3306966,5.3306966 0 0 1 -5.202045,-4.165919 h -1.810803 v -2.329212 h 1.810803 a 5.3306966,5.3306966 0 0 1 5.202045,-4.166264 z m 0,3.933481 a 1.3973674,1.3973674 0 0 0 -1.397388,1.397389 1.3973674,1.3973674 0 0 0 1.397388,1.397389 1.3973674,1.3973674 0 0 0 1.397389,-1.397389 1.3973674,1.3973674 0 0 0 -1.397389,-1.397389 z M 16.407677,76.874391 a 14.565143,14.565143 0 0 0 0.654487,0.78642 h 21.723425 a 14.565143,14.565143 0 0 0 0.654486,-0.78642 z m 1.609795,1.759688 a 14.565143,14.565143 0 0 0 3.689301,2.494302 H 34.14098 a 14.565143,14.565143 0 0 0 3.6893,-2.494302 z m 5.853078,3.312496 a 14.565143,14.565143 0 0 0 4.053326,0.575396 14.565143,14.565143 0 0 0 4.053326,-0.575396 z" /><path
       d="m 49.333855,70.541335 c 1.851781,0 3.125702,-1.063789 3.913694,-2.206377 0.0394,-0.06567 0.01313,-0.09193 -0.02627,-0.118199 l -0.170731,-0.131332 c -0.0394,-0.0394 -0.06567,-0.02627 -0.105066,0.0394 -0.604127,0.853658 -1.759849,1.667916 -3.2439,1.667916 -0.879925,0 -1.628517,-0.105066 -2.521575,-1.103189 -1.024389,-1.129455 -1.260787,-2.613506 -1.260787,-3.375232 -0.01313,-1.917447 0.932457,-4.005626 3.2833,-4.005626 1.037523,0 1.733582,0.446529 2.285177,1.011256 0.551594,0.564728 0.840525,1.195122 1.024389,1.628517 0.0394,0.105066 0.06567,0.118199 0.131332,0.105066 l 0.196998,-0.05253 c 0.05253,-0.01313 0.06567,-0.06567 0.05253,-0.131332 -0.06567,-0.36773 -0.32833,-2.29831 -0.32833,-2.547841 0,-0.183865 -0.02627,-0.210131 -0.144465,-0.210131 -0.118199,0 -0.144465,0 -0.170732,0.0788 L 52.14436,61.57136 c -0.02627,0.09193 -0.09193,0.105066 -0.262664,0 -0.472795,-0.275797 -1.457785,-0.722326 -2.652906,-0.722326 -1.431519,0 -2.613507,0.61726 -3.2833,1.326453 -0.945591,0.998123 -1.339587,2.258911 -1.339587,3.480298 0,1.260787 0.459662,2.784239 1.405253,3.677296 0.787992,0.722326 1.772982,1.208254 3.322699,1.208254 z m 9.285176,-4.360222 c 0.499062,-0.722326 2.849905,-4.123825 3.112569,-4.373355 0.223264,-0.210132 0.446528,-0.288931 0.643526,-0.288931 h 0.32833 c 0.09193,0 0.105066,-0.0394 0.105066,-0.118199 v -0.315196 c 0,-0.05253 -0.01313,-0.0788 -0.105066,-0.0788 -0.118198,0 -0.407129,0.0394 -1.181988,0.0394 -0.879924,0 -1.418385,-0.0394 -1.549717,-0.0394 -0.0788,0 -0.09193,0.02627 -0.09193,0.0788 v 0.315196 c 0,0.0788 0.01313,0.118199 0.09193,0.118199 h 0.354596 c 0.551595,0 0.485929,0.288931 0.433396,0.512195 -0.05253,0.236398 -1.891181,2.968103 -2.377109,3.729829 -0.393996,-0.748593 -2.00938,-3.598497 -2.04878,-3.808628 -0.05253,-0.315197 0,-0.433396 0.393996,-0.433396 h 0.433396 c 0.0788,0 0.09193,-0.05253 0.09193,-0.118199 v -0.32833 c 0,-0.0394 -0.01313,-0.06567 -0.09193,-0.06567 -0.131332,0 -0.604127,0.0394 -1.956847,0.0394 -0.801125,0 -1.418385,-0.0394 -1.536584,-0.0394 -0.0788,0 -0.09193,0.02627 -0.09193,0.0788 v 0.341463 c 0,0.05253 0.01313,0.09193 0.09193,0.09193 h 0.32833 c 0.210131,0 0.512195,0.118199 0.682926,0.315197 0.380863,0.459662 2.560974,4.163224 2.731706,4.504688 v 0.761725 c 0,1.221388 -0.02627,2.25891 -0.0394,2.442775 -0.01313,0.196998 -0.118199,0.32833 -0.459662,0.32833 h -0.643527 c -0.0788,0 -0.09193,0.0394 -0.09193,0.09193 v 0.315196 c 0,0.06567 0.02627,0.105066 0.0788,0.105066 0.144465,0 0.551595,-0.0394 1.733583,-0.0394 1.103188,0 1.615383,0.0394 1.772982,0.0394 0.09193,0 0.09193,-0.0394 0.09193,-0.118199 v -0.302063 c 0,-0.05253 0,-0.09193 -0.09193,-0.09193 h -0.512195 c -0.341463,0 -0.538461,-0.0394 -0.577861,-0.459662 -0.01313,-0.144465 -0.05253,-0.998123 -0.05253,-1.510318 z m 5.660421,-1.195121 c 0,2.33771 -0.02627,3.834894 -0.05253,4.084425 -0.06567,0.643527 -0.210131,0.801125 -0.590994,0.801125 h -0.446529 c -0.06567,0 -0.0788,0.0394 -0.0788,0.0788 v 0.341464 c 0,0.06567 0.01313,0.09193 0.06567,0.09193 0.131332,0 1.037523,-0.0394 1.31332,-0.0394 0.354596,0 1.142588,0.0394 1.27392,0.0394 0.09193,0 0.105066,-0.02627 0.105066,-0.105066 v -0.28893 c 0,-0.0788 -0.01313,-0.118199 -0.105066,-0.118199 h -0.393996 c -0.354596,0 -0.433395,-0.249531 -0.485928,-0.761725 -0.02627,-0.262664 -0.131332,-2.403376 -0.131332,-3.624763 v -2.915571 h 0.0788 c 0.0788,0.105066 2.495308,3.138835 2.639773,3.270167 0.0788,0.0788 1.037523,1.287054 1.956847,2.429642 0.814258,1.024389 1.589117,1.996246 1.60225,2.022513 0.0394,0.05253 0.157599,0.210131 0.315197,0.210131 0.05253,0 0.06567,-0.131332 0.06567,-0.315197 v -4.911817 c 0,-0.853658 0,-2.153844 0.05253,-3.033769 0.02627,-0.499061 0.157598,-0.722326 0.512195,-0.722326 h 0.354596 c 0.05253,0 0.0788,-0.0394 0.0788,-0.09193 v -0.32833 c 0,-0.05253 -0.01313,-0.09193 -0.105065,-0.09193 -0.170732,0 -0.485929,0.0394 -1.273921,0.0394 -0.840524,0 -1.260787,-0.0394 -1.444652,-0.0394 -0.05253,0 -0.0788,0.02627 -0.0788,0.0788 v 0.341463 c 0,0.06567 0.02627,0.09193 0.0788,0.09193 h 0.420263 c 0.367729,0 0.61726,0.183865 0.722326,0.512195 0.0788,0.223264 0.144465,1.510318 0.157598,2.022513 0.02627,0.65666 0.0394,1.300187 0.0394,2.469041 v 1.562851 h -0.05253 C 70.557121,67.665165 68.33761,64.946592 68.193145,64.762728 68.04868,64.578863 65.500839,61.269296 65.435173,61.190497 65.330108,61.072298 65.225042,61.019766 65.05431,61.019766 c -0.157598,0 -0.433395,0.02627 -0.879924,0.02627 -0.446529,0 -0.735459,-0.01313 -0.932457,-0.02627 -0.196998,0 -0.302064,-0.01313 -0.36773,-0.01313 -0.06567,0 -0.0788,0.02627 -0.0788,0.0788 v 0.341463 c 0,0.0394 0.01313,0.09193 0.0788,0.09193 l 0.538462,0.01313 c 0.472795,0.01313 0.866791,0.446529 0.866791,1.221388 z m 14.052525,5.555343 c 1.812381,0 2.981236,-0.787992 3.782361,-1.851781 0.682927,-0.919324 0.98499,-1.917447 0.98499,-2.87617 0,-1.812382 -0.840525,-3.099436 -1.799248,-3.926827 -1.037523,-0.866791 -2.114445,-1.037523 -2.941837,-1.037523 -1.103189,0 -2.403375,0.262664 -3.559097,1.667916 -1.011256,1.221388 -1.221388,2.469042 -1.221388,3.270167 0,1.917447 0.998124,3.335833 1.930581,3.90056 1.037523,0.643527 2.180111,0.853658 2.823638,0.853658 z m 0.105065,-0.499061 c -1.116322,0 -3.519697,-1.221388 -3.519697,-4.675419 0,-1.076923 0.433395,-2.403376 1.31332,-3.243901 0.98499,-0.932457 1.878047,-0.774858 2.075045,-0.774858 1.457785,0 3.506565,1.694182 3.506565,4.570353 0,1.168855 -0.485929,4.123825 -3.375233,4.123825 z m 9.127566,0.499061 c 1.733582,0 2.679172,-1.326453 2.679172,-2.87617 0,-0.866791 -0.236397,-1.378986 -0.57786,-1.786115 -0.472795,-0.577861 -1.208255,-0.801126 -2.114445,-1.090056 -0.380863,-0.118199 -1.116322,-0.407129 -1.497185,-0.787992 -0.32833,-0.341463 -0.407129,-0.774859 -0.407129,-1.142588 0,-0.669794 0.420262,-1.536585 1.589117,-1.536585 0.61726,0 1.076922,0.183865 1.431519,0.564728 0.538461,0.564727 0.709192,1.076922 0.814258,1.457785 0.01313,0.0394 0.0394,0.05253 0.0788,0.0394 l 0.157598,-0.0394 c 0.05253,-0.01313 0.06567,-0.0394 0.06567,-0.105066 -0.01313,-0.28893 -0.183864,-1.628516 -0.183864,-2.088178 0,-0.118199 -0.0394,-0.223265 -0.105066,-0.223265 -0.06567,0 -0.105065,0.02627 -0.170731,0.0788 l -0.170732,0.157599 c -0.06567,0.06567 -0.131332,0.0788 -0.249531,0.01313 -0.223264,-0.105066 -0.801125,-0.32833 -1.549717,-0.32833 -0.709193,0 -1.365853,0.183865 -1.838648,0.630394 -0.40713,0.380862 -0.814259,1.024389 -0.814259,1.681049 0,0.866791 0.223265,1.484052 0.65666,1.917447 0.564728,0.590994 1.510318,0.919324 1.917447,1.06379 1.050656,0.367729 2.022513,0.866791 2.022513,2.21951 0,1.181988 -0.998123,1.667917 -1.786115,1.667917 -0.722326,0 -1.444652,-0.354597 -1.838648,-0.971857 -0.433396,-0.669793 -0.459662,-1.103189 -0.472795,-1.523451 0,-0.0788 -0.02627,-0.105066 -0.0788,-0.105066 l -0.196998,-0.01313 c -0.05253,0 -0.0788,0 -0.09193,0.0788 -0.0394,0.380863 -0.170731,2.048779 -0.223264,2.377109 -0.02627,0.144465 0.0394,0.210131 0.118199,0.210131 0.09193,0 0.157598,-0.01313 0.236397,-0.157598 0.0788,-0.131332 0.131332,-0.223264 0.210131,-0.223264 0.06567,0 0.144466,0.0394 0.302064,0.157598 0.525328,0.407129 1.168855,0.682926 2.088179,0.682926 z m 8.221384,0 c 1.142588,0 1.943714,-0.302063 2.469042,-0.787992 0.735459,-0.630393 1.024389,-1.457785 1.103188,-2.534707 0.0394,-0.512195 0.06567,-2.810505 0.06567,-2.99437 0,-0.183864 0,-2.048779 0.02627,-2.180111 0.0394,-0.157598 0.0788,-0.525328 0.564725,-0.525328 h 0.53846 c 0.0657,0 0.0788,-0.05253 0.0788,-0.131332 v -0.28893 c 0,-0.0394 -0.0131,-0.09193 -0.13133,-0.09193 -0.1182,0 -0.53846,0.0394 -1.444651,0.0394 -0.879925,0 -1.484052,-0.0394 -1.615384,-0.0394 -0.0788,0 -0.09193,0.02627 -0.09193,0.09193 v 0.315197 c 0,0.06567 0.01313,0.105065 0.09193,0.105065 h 0.577861 c 0.341463,0 0.551594,0.236398 0.590994,0.577861 0.0394,0.32833 0.06567,1.090056 0.06567,2.088179 v 2.810505 c 0,0.971856 -0.170732,1.759848 -0.682926,2.311443 -0.459662,0.472795 -1.221388,0.722326 -1.96998,0.722326 -0.761726,0 -1.602251,-0.236398 -2.088179,-0.945591 -0.302064,-0.446528 -0.407129,-1.063789 -0.420262,-1.667916 -0.01313,-0.420262 -0.06567,-2.088179 -0.06567,-2.784238 v -0.866792 c 0,-0.669793 0.01313,-1.589117 0.02627,-1.707316 0.02627,-0.28893 0.249531,-0.538461 0.630394,-0.538461 h 0.65666 c 0.09193,0 0.105065,-0.02627 0.105065,-0.09193 v -0.341463 c 0,-0.05253 -0.01313,-0.0788 -0.118199,-0.0788 -0.144465,0 -0.774858,0.0394 -1.799248,0.0394 -1.02439,0 -1.667916,-0.0394 -1.799248,-0.0394 -0.105066,0 -0.118199,0.02627 -0.118199,0.105066 v 0.28893 c 0,0.09193 0.01313,0.118199 0.09193,0.118199 h 0.617261 c 0.407129,0 0.499061,0.210131 0.499061,0.669793 v 3.125702 c 0,1.720449 0.05253,2.600374 0.210131,3.191368 0.210132,0.827391 0.669794,1.405252 1.562851,1.759848 0.433396,0.183865 1.090056,0.275797 1.772982,0.275797 z m 6.763598,-4.898683 c 0,1.247654 0,2.482175 -0.0263,3.782361 0,0.354597 -0.22327,0.446529 -0.5122,0.446529 h -0.53846 c -0.0657,0 -0.0657,0.0394 -0.0657,0.105066 v 0.302063 c 0,0.06567 0,0.105066 0.10506,0.105066 0.14447,0 0.44653,-0.0394 1.64165,-0.0394 1.24766,0 1.57599,0.0394 1.72045,0.0394 0.13133,0 0.14447,-0.02627 0.14447,-0.118199 v -0.28893 c 0,-0.06567 -0.0131,-0.105066 -0.10507,-0.105066 h -0.82739 c -0.197,0 -0.30207,-0.236397 -0.32833,-0.512195 -0.0131,-0.196998 -0.0263,-1.667916 -0.0263,-2.442775 v -0.735459 c 0.18387,-0.0394 0.3152,-0.0394 0.4334,-0.0394 0.76172,0 1.07692,0.354596 1.41838,0.761725 0.1576,0.183865 0.78799,1.129455 0.84053,1.221388 0.0657,0.105065 0.77486,1.352719 0.87992,1.510318 0.1182,0.170731 0.40713,0.61726 0.5516,0.748592 0.19699,-0.01313 0.68292,-0.0394 1.06379,-0.0394 0.57786,0 0.91932,0.0394 1.02439,0.0394 0.0919,0 0.10506,-0.0394 0.10506,-0.118199 v -0.28893 c 0,-0.05253 -0.0131,-0.105066 -0.10506,-0.105066 -0.36773,0 -0.6698,-0.02627 -0.9456,-0.223264 -0.24953,-0.183865 -1.09005,-1.378986 -1.15572,-1.510318 -0.10506,-0.170732 -1.03752,-1.510318 -1.19512,-1.68105 -0.10506,-0.144465 -0.28893,-0.380862 -0.60412,-0.499061 v -0.02627 c 1.68104,-0.367729 2.42964,-0.98499 2.42964,-2.62664 0,-0.485928 -0.24953,-1.076922 -0.68293,-1.497184 -0.49906,-0.472796 -1.36585,-0.801126 -2.45591,-0.801126 -0.2364,0 -1.45778,0.0394 -2.19324,0.0394 -1.10319,0 -1.51032,-0.0394 -1.62852,-0.0394 -0.0657,0 -0.0788,0.02627 -0.0788,0.09193 v 0.32833 c 0,0.05253 0.0131,0.09193 0.0788,0.09193 h 0.52533 c 0.32833,0 0.48593,0.223265 0.49906,0.65666 0.0131,0.380863 0.0131,1.221388 0.0131,2.193245 z m 1.18199,-3.690429 c 0,-0.210131 0.0657,-0.354597 0.1576,-0.420263 0.1182,-0.0788 0.28893,-0.105065 0.44653,-0.105065 1.09005,0 1.66792,0.196998 2.18011,0.604127 0.38086,0.315197 0.65666,0.893058 0.65666,1.497185 0,0.551594 -0.45966,2.193244 -2.8499,2.193244 -0.24953,0 -0.394,-0.01313 -0.591,-0.05253 z m 9.14071,-0.485929 2.33771,0.05253 c 0.3546,0.01313 0.72233,0.170732 0.99812,0.354597 0.3152,0.196998 1.28706,1.444652 1.31332,1.497184 0.0131,0.02627 0.0657,0.06567 0.10507,0.0394 l 0.197,-0.105066 c 0.0525,-0.02627 0.0525,-0.06567 0.0394,-0.118198 -0.0394,-0.131332 -0.61726,-1.930581 -0.6698,-2.114446 -0.0131,-0.0394 -0.0394,-0.06567 -0.10506,-0.06567 -0.0657,0 -0.3152,0.02627 -0.52533,0.02627 -1.30019,0 -2.60037,0.01313 -3.90056,0.01313 h -0.57786 c -0.86679,0 -1.32645,-0.0394 -1.61538,-0.0394 -0.0657,0 -0.0919,0.02627 -0.0919,0.06567 v 0.354597 c 0,0.0788 0.0394,0.09193 0.10507,0.09193 h 0.47279 c 0.48593,0 0.61726,0.09193 0.6698,0.512195 0.0131,0.131332 0.0394,1.772982 0.0394,2.863038 v 1.287053 3.112568 c 0,0.485929 -0.0525,0.577861 -0.65666,0.577861 h -0.52533 c -0.0919,0 -0.13133,0.01313 -0.13133,0.06567 v 0.354597 c 0,0.06567 0.0394,0.09193 0.1182,0.09193 0.11819,0 0.28893,-0.01313 0.56472,-0.02627 0.26267,0 0.6304,-0.01313 1.11633,-0.01313 2.04877,0 3.32269,0.01313 4.11069,0.01313 0.78799,0.01313 1.07692,0.02627 1.14259,0.02627 0.15759,0 0.24953,-0.0788 0.28893,-0.196998 l 0.69606,-1.93058 c 0.0394,-0.105066 0.0394,-0.144465 -0.0263,-0.183865 l -0.21013,-0.118199 c -0.0788,-0.0394 -0.1182,0.01313 -0.1576,0.0788 -0.18387,0.302064 -0.91932,1.247654 -1.07692,1.378986 -0.34147,0.288931 -0.91933,0.433396 -1.14259,0.459662 -0.2758,0.02627 -0.93246,0.0394 -1.15572,0.0394 -0.32833,0 -0.7092,-0.0394 -0.97186,-0.09193 -0.40713,-0.0788 -0.73546,-0.341463 -0.74859,-1.024389 0,-0.262664 -0.0263,-1.536584 -0.0263,-2.245777 v -0.814259 c 0.21013,0 1.11632,0 1.73358,0.06567 0.34147,0.0394 0.48593,0.236398 0.56473,0.512195 0.0394,0.144465 0.1182,0.446529 0.14447,0.617261 0.0131,0.09193 0.0394,0.131332 0.10506,0.118198 l 0.28893,-0.0394 c 0.0525,-0.01313 0.0788,-0.0394 0.0788,-0.105066 -0.0263,-0.275797 -0.0788,-0.906191 -0.0788,-1.365853 0,-0.196998 0,-1.27392 0.0394,-1.497184 0.0131,-0.05253 -0.0131,-0.105066 -0.0788,-0.105066 l -0.32833,-0.01313 c -0.0525,0 -0.0919,0.02627 -0.0919,0.09193 -0.0131,0.249531 -0.0657,0.512195 -0.10507,0.643527 -0.11819,0.407129 -0.22326,0.512195 -0.60412,0.577861 -0.1576,0.02627 -1.56285,0.0788 -1.66792,0.0788 z"
       id="text1"
       style="font-size:13.1332px;font-family:'Adobe Caslon Pro';-inkscape-font-specification:'Adobe Caslon Pro';fill:#ff6159;stroke-width:0.153904"
       aria-label="CYNOSURE" /><path
       d="m 46.534685,72.037464 h 1.440661 V 71.739896 H 46.534685 V 70.89437 h 1.495094 V 70.596802 H 46.1972 v 2.645447 h 1.897899 v -0.297568 h -1.560414 z m 4.100622,-1.440662 h -0.31934 v 2.162807 l -1.3826,-2.162807 h -0.366516 v 2.645447 h 0.319341 v -2.144663 l 1.368084,2.144663 h 0.381031 z m 2.667219,0.820125 c -0.105237,-0.580619 -0.439093,-0.863671 -1.019712,-0.863671 -0.35563,0 -0.64231,0.112495 -0.838269,0.330227 -0.239506,0.261279 -0.370145,0.638681 -0.370145,1.066888 0,0.435464 0.134268,0.809238 0.381031,1.066888 0.206846,0.210474 0.468125,0.308454 0.812867,0.308454 0.645939,0 1.008826,-0.348372 1.088661,-1.048744 h -0.348371 c -0.02903,0.181444 -0.06532,0.304825 -0.119753,0.410062 -0.108866,0.217733 -0.333856,0.341114 -0.616908,0.341114 -0.526186,0 -0.860042,-0.420949 -0.860042,-1.081403 0,-0.678599 0.315712,-1.095919 0.831011,-1.095919 0.214103,0 0.413691,0.06169 0.522557,0.166928 0.09798,0.09072 0.152413,0.199588 0.19233,0.399176 z m 0.892703,0.685856 h 0.870929 c 0.301196,0 0.435464,0.145155 0.435464,0.471753 l -0.0036,0.235877 c 0,0.163299 0.02903,0.322969 0.07621,0.431836 h 0.410063 v -0.08346 c -0.127011,-0.08709 -0.152413,-0.181444 -0.159671,-0.533444 -0.0036,-0.435465 -0.07258,-0.566104 -0.359258,-0.689486 0.297568,-0.148783 0.41732,-0.326598 0.41732,-0.631423 0,-0.457238 -0.283052,-0.70763 -0.805609,-0.70763 h -1.2193 v 2.645447 h 0.337485 z m 0,-0.297567 V 70.89437 h 0.816495 c 0.188702,0 0.297568,0.02903 0.381032,0.101608 0.09072,0.07621 0.137897,0.195959 0.137897,0.352 0,0.315712 -0.15967,0.457238 -0.518929,0.457238 z m 3.193409,0.399176 0.99431,-1.60759 h -0.402804 l -0.754805,1.288249 -0.776578,-1.288249 h -0.41732 l 1.019712,1.60759 v 1.037857 h 0.337485 z m 1.683794,-0.08346 h 0.831012 c 0.206845,0 0.370144,-0.06169 0.51167,-0.188702 0.159671,-0.145154 0.228619,-0.315711 0.228619,-0.558846 0,-0.497155 -0.293938,-0.776578 -0.816496,-0.776578 h -1.09229 v 2.645447 h 0.337485 z m 0,-0.297568 v -0.92899 h 0.704001 c 0.32297,0 0.5153,0.174185 0.5153,0.464495 0,0.29031 -0.19233,0.464495 -0.5153,0.464495 z m 2.982933,-0.92899 h 0.8673 v -0.297568 h -2.075713 v 0.297568 h 0.870928 v 2.347879 h 0.337485 z m 1.556789,-0.297568 h -0.341113 v 2.645447 h 0.341113 z m 1.716455,-0.04355 c -0.758434,0 -1.273733,0.558846 -1.273733,1.386228 0,0.831011 0.511671,1.386229 1.277362,1.386229 0.32297,0 0.606021,-0.09798 0.820125,-0.279423 0.28668,-0.243135 0.457237,-0.653197 0.457237,-1.085033 0,-0.852784 -0.504413,-1.408001 -1.280991,-1.408001 z m 0,0.297567 c 0.573362,0 0.943506,0.431836 0.943506,1.103177 0,0.638681 -0.381031,1.074145 -0.939877,1.074145 -0.566104,0 -0.939877,-0.435464 -0.939877,-1.088661 0,-0.653196 0.373773,-1.088661 0.936248,-1.088661 z m 3.755879,-0.254021 h -0.31934 v 2.162807 l -1.3826,-2.162807 h -0.366516 v 2.645447 h 0.319341 v -2.144663 l 1.368084,2.144663 h 0.381031 z m 2.982931,2.645447 0.743919,-2.21724 v 2.21724 h 0.31934 v -2.645447 h -0.468124 l -0.76932,2.304333 -0.783836,-2.304333 h -0.468125 v 2.645447 h 0.319341 v -2.21724 l 0.751176,2.21724 z m 1.988622,-1.204785 h 1.440662 V 71.739896 H 74.056041 V 70.89437 h 1.495095 v -0.297568 h -1.832579 v 2.645447 h 1.897899 v -0.297568 h -1.560415 z m 3.480083,0.410062 0.272166,0.794723 h 0.377402 l -0.928991,-2.645447 h -0.435464 l -0.943506,2.645447 h 0.359258 l 0.279423,-0.794723 z m -0.09435,-0.283052 h -0.841898 l 0.435464,-1.204785 z m 2.874063,-0.791094 c 0,-0.181443 -0.01089,-0.232247 -0.06895,-0.355629 -0.145154,-0.304825 -0.453608,-0.464495 -0.899959,-0.464495 -0.58062,0 -0.939878,0.297567 -0.939878,0.776578 0,0.322969 0.170557,0.526186 0.518929,0.616908 l 0.656825,0.174186 c 0.337485,0.08709 0.486269,0.221361 0.486269,0.428206 0,0.141526 -0.07621,0.286681 -0.188701,0.366516 -0.105238,0.07621 -0.272166,0.112495 -0.486269,0.112495 -0.29031,0 -0.48264,-0.06895 -0.60965,-0.221361 -0.09798,-0.116124 -0.141526,-0.243134 -0.137897,-0.406433 h -0.319341 c 0.0036,0.243134 0.0508,0.402804 0.156042,0.547959 0.181443,0.250392 0.486268,0.377403 0.889073,0.377403 0.315711,0 0.573361,-0.07258 0.743918,-0.203217 0.177815,-0.141526 0.29031,-0.377403 0.29031,-0.606021 0,-0.326599 -0.203217,-0.566104 -0.562475,-0.664084 l -0.664083,-0.177814 c -0.319341,-0.08709 -0.435465,-0.188702 -0.435465,-0.391918 0,-0.268537 0.235877,-0.446351 0.591506,-0.446351 0.420949,0 0.656825,0.188701 0.660454,0.537072 z m 2.260786,-0.776578 v 1.857982 c 0,0.355629 -0.25765,0.573361 -0.682228,0.573361 -0.195959,0 -0.355629,-0.04717 -0.48264,-0.137897 -0.130639,-0.101608 -0.19233,-0.235876 -0.19233,-0.435464 V 70.596802 H 80.88194 v 1.857982 c 0,0.537073 0.384661,0.870929 1.012455,0.870929 0.620537,0 1.019712,-0.341114 1.019712,-0.870929 v -1.857982 z m 1.291878,1.505981 h 0.870929 c 0.301196,0 0.435464,0.145155 0.435464,0.471753 l -0.0036,0.235877 c 0,0.163299 0.02903,0.322969 0.07621,0.431836 h 0.410063 v -0.08346 c -0.127011,-0.08709 -0.152413,-0.181444 -0.159671,-0.533444 -0.0036,-0.435465 -0.07258,-0.566104 -0.359258,-0.689486 0.297568,-0.148783 0.41732,-0.326598 0.41732,-0.631423 0,-0.457238 -0.283051,-0.70763 -0.805609,-0.70763 h -1.2193 v 2.645447 h 0.337485 z m 0,-0.297567 V 70.89437 h 0.816496 c 0.188701,0 0.297567,0.02903 0.381031,0.101608 0.09072,0.07621 0.137897,0.195959 0.137897,0.352 0,0.315712 -0.15967,0.457238 -0.518928,0.457238 z m 2.565613,0.232248 h 1.440662 V 71.739896 H 86.434114 V 70.89437 h 1.495095 v -0.297568 h -1.83258 v 2.645447 h 1.897899 v -0.297568 h -1.560414 z m 3.792169,-0.664084 c 0,-0.181443 -0.01089,-0.232247 -0.06895,-0.355629 -0.145155,-0.304825 -0.453609,-0.464495 -0.89996,-0.464495 -0.580619,0 -0.939878,0.297567 -0.939878,0.776578 0,0.322969 0.170557,0.526186 0.518929,0.616908 l 0.656825,0.174186 c 0.337485,0.08709 0.486269,0.221361 0.486269,0.428206 0,0.141526 -0.07621,0.286681 -0.188701,0.366516 -0.105238,0.07621 -0.272166,0.112495 -0.486269,0.112495 -0.290309,0 -0.48264,-0.06895 -0.60965,-0.221361 -0.09798,-0.116124 -0.141526,-0.243134 -0.137897,-0.406433 h -0.319341 c 0.0036,0.243134 0.0508,0.402804 0.156042,0.547959 0.181443,0.250392 0.486268,0.377403 0.889073,0.377403 0.315712,0 0.573361,-0.07258 0.743918,-0.203217 0.177815,-0.141526 0.29031,-0.377403 0.29031,-0.606021 0,-0.326599 -0.203217,-0.566104 -0.562475,-0.664084 l -0.664083,-0.177814 c -0.319341,-0.08709 -0.435465,-0.188702 -0.435465,-0.391918 0,-0.268537 0.235877,-0.446351 0.591506,-0.446351 0.420949,0 0.656826,0.188701 0.660455,0.537072 z m 3.05551,0.656826 c 0.0036,0.130639 -0.03992,0.304825 -0.112495,0.431835 l -0.48264,-0.591505 c 0.377402,-0.214104 0.500784,-0.370145 0.500784,-0.631424 0,-0.333856 -0.246763,-0.569732 -0.591506,-0.569732 -0.348371,0 -0.620537,0.250392 -0.620537,0.569732 0,0.170557 0.06532,0.304825 0.293939,0.591506 -0.453609,0.261279 -0.587877,0.439093 -0.587877,0.772949 0,0.435465 0.297567,0.722146 0.743918,0.722146 0.181444,0 0.348372,-0.04355 0.479011,-0.127011 0.07621,-0.0508 0.137897,-0.101608 0.279423,-0.239505 l 0.22499,0.283052 h 0.395547 l -0.442722,-0.54796 c 0.134268,-0.206845 0.210474,-0.446351 0.210474,-0.664083 z m -0.754805,-0.352 c -0.221361,-0.254021 -0.254021,-0.312083 -0.254021,-0.442723 0,-0.188701 0.123381,-0.312082 0.312083,-0.312082 0.181443,0 0.315711,0.130639 0.315711,0.308454 0,0.15967 -0.09798,0.275794 -0.373773,0.446351 z m 0.482639,1.066887 c -0.203216,0.214104 -0.359258,0.297568 -0.547959,0.297568 -0.261279,0 -0.475382,-0.206846 -0.475382,-0.464496 0,-0.203216 0.112495,-0.348371 0.442722,-0.558846 z m 2.235381,0.497156 h 1.019713 c 0.667712,0 1.077774,-0.500785 1.077774,-1.324538 0,-0.820125 -0.406433,-1.320909 -1.077774,-1.320909 h -1.019713 z m 0.337485,-0.297568 V 70.89437 h 0.624166 c 0.522557,0 0.798351,0.352 0.798351,1.02697 0,0.671341 -0.275794,1.023341 -0.798351,1.023341 z m 2.580129,-0.907217 h 1.440662 V 71.739896 H 98.162622 V 70.89437 h 1.495095 v -0.297568 h -1.83258 v 2.645447 h 1.897899 v -0.297568 h -1.560414 z m 2.304338,0 h 1.26285 v -0.297568 h -1.26285 V 70.89437 h 1.43703 v -0.297568 h -1.77452 v 2.645447 h 0.33749 z m 2.21724,0 h 1.44066 V 71.739896 H 102.6842 V 70.89437 h 1.49509 v -0.297568 h -1.83258 v 2.645447 h 1.8979 v -0.297568 h -1.56041 z m 4.10062,-1.440662 h -0.31934 v 2.162807 l -1.3826,-2.162807 h -0.36652 v 2.645447 h 0.31935 v -2.144663 l 1.36808,2.144663 h 0.38103 z m 2.4386,0.776578 c 0,-0.181443 -0.0109,-0.232247 -0.069,-0.355629 -0.14515,-0.304825 -0.45361,-0.464495 -0.89996,-0.464495 -0.58062,0 -0.93987,0.297567 -0.93987,0.776578 0,0.322969 0.17055,0.526186 0.51892,0.616908 l 0.65683,0.174186 c 0.33749,0.08709 0.48627,0.221361 0.48627,0.428206 0,0.141526 -0.0762,0.286681 -0.1887,0.366516 -0.10524,0.07621 -0.27217,0.112495 -0.48627,0.112495 -0.29031,0 -0.48264,-0.06895 -0.60965,-0.221361 -0.098,-0.116124 -0.14153,-0.243134 -0.1379,-0.406433 h -0.31934 c 0.004,0.243134 0.0508,0.402804 0.15604,0.547959 0.18145,0.250392 0.48627,0.377403 0.88908,0.377403 0.31571,0 0.57336,-0.07258 0.74391,-0.203217 0.17782,-0.141526 0.29031,-0.377403 0.29031,-0.606021 0,-0.326599 -0.20321,-0.566104 -0.56247,-0.664084 l -0.66408,-0.177814 c -0.31934,-0.08709 -0.43547,-0.188702 -0.43547,-0.391918 0,-0.268537 0.23588,-0.446351 0.59151,-0.446351 0.42095,0 0.65682,0.188701 0.66045,0.537072 z m 0.96165,-0.776578 h -0.34112 v 2.645447 h 0.34112 z m 1.65114,2.645447 0.9181,-2.645447 h -0.35925 l -0.73304,2.239013 -0.77657,-2.239013 h -0.36289 l 0.95076,2.645447 z m 1.59307,-1.204785 h 1.44067 v -0.297568 h -1.44067 V 70.89437 h 1.4951 v -0.297568 h -1.83258 v 2.645447 h 1.8979 v -0.297568 h -1.56042 z m 3.4692,-1.440662 h -0.34112 v 2.645447 h 0.34112 z m 2.70714,0.820125 c -0.10524,-0.580619 -0.4391,-0.863671 -1.01972,-0.863671 -0.35563,0 -0.64231,0.112495 -0.83827,0.330227 -0.2395,0.261279 -0.37014,0.638681 -0.37014,1.066888 0,0.435464 0.13427,0.809238 0.38103,1.066888 0.20685,0.210474 0.46813,0.308454 0.81287,0.308454 0.64594,0 1.00882,-0.348372 1.08866,-1.048744 h -0.34837 c -0.029,0.181444 -0.0653,0.304825 -0.11975,0.410062 -0.10887,0.217733 -0.33386,0.341114 -0.61691,0.341114 -0.52619,0 -0.86005,-0.420949 -0.86005,-1.081403 0,-0.678599 0.31572,-1.095919 0.83102,-1.095919 0.2141,0 0.41369,0.06169 0.52255,0.166928 0.098,0.09072 0.15242,0.199588 0.19233,0.399176 z m 0.88182,0.620537 h 1.44066 v -0.297568 h -1.44066 V 70.89437 h 1.49509 v -0.297568 h -1.83258 v 2.645447 h 1.8979 v -0.297568 h -1.56041 z"
       id="text2"
       style="font-size:3.62887px;font-family:'Nimbus Sans L';-inkscape-font-specification:'Nimbus Sans L';fill:#ff6159;stroke-width:0.226804"
       transform="scale(0.97683543,1.0237139)"
       aria-label="ENCRYPTION MEASURES &amp; DEFENSIVE ICE" /></g></svg>
